Genre: Horror | Mystery | Thriller
 Language:English
 IMDb:http://www.imdb.com/title/tt2040560/
 Source:AXED Thanks!
 Encoder:Tony
 
Format : AVI
 Format/Info : Audio Video Interleave
 File size : 1.02 GiB
 Duration : 1h 29mn
 Overall bit rate : 1 632 Kbps
 
Video
 ID : 0
 Format : MPEG-4 Visual
 Format profile : Advanced Simple@L5
 Format settings, BVOP : 2
 Format settings, QPel : No
 Format settings, GMC : No warppoints
 Format settings, Matrix : Default (H.263)
 Muxing mode : Packed bitstream
 Codec ID : XVID
 Codec ID/Hint : XviD
 Duration : 1h 29mn
 Bit rate : 1 239 Kbps
 Width : 720 pixels
 Height : 384 pixels
 Display aspect ratio : 1.85:1
 Frame rate : 23.976 fps
 Color space : YUV
 Chroma subsampling : 4:2:0
 Bit depth : 8 bits
 Scan type : Progressive
 Compression mode : Lossy
 Bits/(Pixel*Frame) : 0.187
 Stream size : 789 MiB (76%)
 Writing library : XviD 64
 
Audio
 ID : 1
 Format : AC-3
 Format/Info : Audio Coding 3
 Mode extension : CM (complete main)
 Format settings, Endianness : Big
 Codec ID : 2000
 Duration : 1h 29mn
 Bit rate mode : Constant
 Bit rate : 384 Kbps
 Channel(s) : 6 channels
 Channel positions : Front: L C R, Side: L R, LFE
 Sampling rate : 48.0 KHz
 Bit depth : 16 bits
 Compression mode : Lossy
 Stream size : 245 MiB (24%)
 Alignment : Split accross interleaves
 Interleave, duration : 42 ms (1.00 video frame)
 Interleave, preload duration : 500 ms
 

Plot:
 As a woman struggles to come to grips with her past in the wake of her mother's death, an unsettling presence emerges in her childhood home.
 
